<?xml version="1.0" encoding="UTF-8"?>
<!DOCTYPE svg PUBLIC "-//W3C//DTD SVG 1.1//EN" "http://www.w3.org/Graphics/SVG/1.1/DTD/svg11.dtd">
<svg xmlns="http://www.w3.org/2000/svg" version="1.1" width="536px" height="648px" style="shape-rendering:geometricPrecision; text-rendering:geometricPrecision; image-rendering:optimizeQuality; fill-rule:evenodd; clip-rule:evenodd" xmlns:xlink="http://www.w3.org/1999/xlink">
<g><path style="opacity:1" fill="#22b6e8" d="M 394.5,-0.5 C 396.167,-0.5 397.833,-0.5 399.5,-0.5C 361.002,50.4674 322.002,101.134 282.5,151.5C 282.833,151.833 283.167,152.167 283.5,152.5C 322.05,142.26 360.55,131.926 399,121.5C 399.667,122.5 399.667,123.5 399,124.5C 266.006,298.504 133.506,472.837 1.5,647.5C 0.833333,647.5 0.166667,647.5 -0.5,647.5C -0.5,646.5 -0.5,645.5 -0.5,644.5C 52.8967,521.71 105.73,398.71 158,275.5C 131.323,283.378 104.49,290.711 77.5,297.5C 76.1667,297.5 75.5,296.833 75.5,295.5C 114.891,214.855 154.391,134.188 194,53.5C 200.197,50.6534 206.697,48.4868 213.5,47C 262.483,34.3378 311.483,21.8378 360.5,9.5C 363.152,9.59047 365.485,8.92381 367.5,7.5C 376.546,4.98858 385.546,2.32192 394.5,-0.5 Z M 346.5,30.5 C 347.167,30.5 347.5,30.8333 347.5,31.5C 307.838,83.842 268.504,136.509 229.5,189.5C 229.833,189.833 230.167,190.167 230.5,190.5C 267.765,180.683 305.099,171.517 342.5,163C 270.209,256.443 198.543,350.277 127.5,444.5C 125.413,445.585 124.08,447.251 123.5,449.5C 108.833,468.167 94.1667,486.833 79.5,505.5C 91.6364,477.762 103.97,450.095 116.5,422.5C 122.01,412.144 127.01,401.477 131.5,390.5C 154.255,341.817 176.921,292.984 199.5,244C 199.167,243.5 198.833,243 198.5,242.5C 171.255,250.811 143.922,258.811 116.5,266.5C 143.833,208.5 171.167,150.5 198.5,92.5C 201.949,87.265 204.616,81.5983 206.5,75.5C 208.392,72.7235 210.059,69.7235 211.5,66.5C 256.371,54.0321 301.371,42.0321 346.5,30.5 Z M 79.5,505.5 C 79.573,507.027 78.9063,508.027 77.5,508.5C 77.427,506.973 78.0937,505.973 79.5,505.5 Z"/></g>
<g><path style="opacity:0.875" fill="#38809c" d="M 367.5,7.5 C 365.485,8.92381 363.152,9.59047 360.5,9.5C 362.515,8.07619 364.848,7.40953 367.5,7.5 Z"/></g>
<g><path style="opacity:0.008" fill="#e6f5fc" d="M 346.5,30.5 C 347.251,29.4265 348.251,29.2599 349.5,30C 348.956,30.7172 348.289,31.2172 347.5,31.5C 347.5,30.8333 347.167,30.5 346.5,30.5 Z"/></g>
<g><path style="opacity:1" fill="#7cc9f1" d="M 206.5,75.5 C 204.616,81.5983 201.949,87.265 198.5,92.5C 199.725,85.6574 202.225,79.324 206,73.5C 206.464,74.0944 206.631,74.7611 206.5,75.5 Z"/></g>
<g><path style="opacity:0.224" fill="#425966" d="M 75.5,295.5 C 75.5,296.833 76.1667,297.5 77.5,297.5C 76.791,298.404 75.791,298.737 74.5,298.5C 74.2627,297.209 74.596,296.209 75.5,295.5 Z"/></g>
<g><path style="opacity:1" fill="#7dc9f1" d="M 131.5,390.5 C 127.01,401.477 122.01,412.144 116.5,422.5C 118.543,413.747 121.709,405.413 126,397.5C 127.382,394.695 129.216,392.361 131.5,390.5 Z"/></g>
<g><path style="opacity:0.518" fill="#b0e1f7" d="M 127.5,444.5 C 126.92,446.749 125.587,448.415 123.5,449.5C 124.08,447.251 125.413,445.585 127.5,444.5 Z"/></g>
</svg>
